# xmcd
#
# Track frame offsets:
#	150
#	14902
#	33579
#	51116
#	64910
#	87918
#	104473
#	132427
#	147653
#	167851
#	188240
#	216694
#
# Disc length: 3303 seconds
#
# Revision: 0
# Processed by: cddbd v1.5.2PL0 Copyright (c) Steve Scherf et al.
# Submitted via: audiograbber 1.83.01
#
DISCID=c40ce50c
DTITLE=Various Artist - Psychemagik Presents Magik Cyrkles [CD1]
DYEAR=2012
DGENRE=Soundtrack
TTITLE0=Intrinsic Trance - Hey Policeman
TTITLE1=Sirarcusa - Streap-Tease In The Stars (The Way I Do)
TTITLE2=The Bear Brothers - Love Is (Psychemagik Edit)
TTITLE3=Epsilon - Ayayaya
TTITLE4=KingCats - Down In California (Albion Edit)
TTITLE5=Mandy B Jones - 1 2 3 4 (We Aint Got Much Time)
TTITLE6=Miro - Safari of Love
TTITLE7=Elias Rahbani and His Orchestra - From The Moon (Psychemagik Edit)
TTITLE8=Ramasandiran Somusundaram - Electronic Heart
TTITLE9=Raja Zahr - Drum Sequence
TTITLE10=Malibu - 80's, 80's?
TTITLE11=Goya - House At The Sea (Psychemagik Edit)
EXTD=
EXTT0=
EXTT1=
EXTT2=
EXTT3=
EXTT4=
EXTT5=
EXTT6=
EXTT7=
EXTT8=
EXTT9=
EXTT10=
EXTT11=
PLAYORDER=
